<svg width="4000" height="500" xmlns="http://www.w3.org/2000/svg" xml:space="preserve" version="1.1">

 <g>
  <title>Layer 1</title>
  <g id="Wordmark_19_">
   <path id="svg_1" fill="#FFFFFF" d="m2989.18,222.09009l23.43,-29.96l-49.58,-138.5c-5.13,-14.34 -19.5,-23.23 -34.62,-21.39c-31.74,3.86 -81.71,14.45 -113.25,25.24c-127.73,43.79 -109.87,116.78 -109.87,116.78l32.08,185.16l-4.58,51.45c-1.03,0.07 -2.06,0.13 -3.1,0.19c0,0 0,0 0,0c-40.16,-1.02 -72.41,-33.9 -72.41,-74.31c0,-5.64 0.63,-11.12 1.82,-16.4c2.18,-9.69 6.25,-18.66 11.81,-26.5c0.7,-1 1.43,-1.97 2.18,-2.93c-38.32,10.88 -66.58,45.67 -67.64,87.22c-0.01,0.4 -0.03,2.79 -0.03,2.79c-0.82,28.28 20.04,50.72 48.21,63.77c25.89,11.99 64.47,13.37 99.89,11.08c3.75,-0.24 7.47,-0.52 11.14,-0.84c41.53,-3.58 76.05,-11.39 76.05,-11.39c41.87,2.11 70.3,29.58 70.3,29.58l-2.69,-49.17c0,0 119.47,-46.67 150.01,-113.52c30.54,-66.83 -69.15,-88.35 -69.15,-88.35zm-66.61,-170.79c0,0 0.04,-0.01 0.11,-0.03c1.2,-0.32 11.86,-2.86 19.26,4.53c0.04,0.04 0.08,0.08 0.12,0.12c2.1,2.13 3.93,5.08 5.2,9.12c0.01,0.02 6.47,21.09 6.47,21.09l-0.07,0.02l-9.64,2.64l-26.86,7.35l-10.57,-40.23c3.11,-0.91 13.76,-3.97 15.98,-4.61zm-42.83,12.29l10.48,39.91l-30.58,8.36l-0.14,0.04l-10.36,-39.45c11,-3.17 21.85,-6.33 30.6,-8.86zm-80.17,24.81c5.6,-2.42 11.64,-4.7 18.16,-6.79c1.5,-0.48 3.03,-0.95 4.58,-1.41l30.58,116.38l-31.28,8.56l-29.74,-113.19c2.47,-1.21 5.03,-2.4 7.7,-3.55zm-70.08,71.85c0,0 0,-0.01 0,0c0,-0.01 0,-0.02 0.01,-0.03c0.11,-0.44 1.56,-6.24 4.94,-13.94c4.07,-8.59 11.28,-20.13 23.82,-31.68c1.13,-0.83 2.29,-1.63 3.5,-2.38l34.67,99.8l-23.06,6.31c-6.99,-9.48 -34.1,-49.48 -43.88,-58.08zm76.26,243.74c-3.4,0.35 -6.54,0.67 -9.43,0.97c-2.93,0.3 -5.6,0.58 -8.05,0.84c-23.11,2.41 -25.73,2.8 -25.73,2.8l0.34,-3.19l0.13,-1.25l0.46,-4.29l5.4,-50.42l-8.27,-38.39l-2.07,-9.62l-5.01,-23.22l-1.84,-8.53l-1.03,-4.78l-10.59,-49.14l20.74,36.11l67.42,-18.44c0,0 -28.62,41.3 -20.55,78.75c0,0 13.45,-67.61 78.56,-96.42c65.11,-28.81 70.88,-63.38 70.88,-63.38s-30.54,24.78 -74.91,14.98c0,0 -9.96,-12.89 -5.7,-26.52l76.13,-20.77l11.61,-3.17l0.94,-0.26l21.9,66.65l-123.5,126.77l2.3,64.35c-0.01,-0.01 -20.76,25.54 -60.13,29.57zm185.73,-92c-5.38,40.14 -89.51,68.57 -89.51,68.57l-5.19,-70.11l43.41,-40.53c0.01,0 56.67,1.92 51.29,42.07z" class="st0"/>
   <polygon id="svg_2" fill="#FFFFFF" points="413.3599853515625,127.92005920410156 385.3999938964844,32.74013149738312 32,32.74013149738312 59.95000076293945,85.99013137817383 59.95000076293945,419.4302062988281 32,472.6701965332031 212.36000061035156,472.6701965332031 184.41000366210938,419.4302062988281 184.41000366210938,300.2900695800781 297.54998779296875,300.2900695800781 342.80999755859375,326.2500305175781 342.80999755859375,179.16004943847656 297.54998779296875,205.12013244628906 184.41000366210938,205.12013244628906 184.41000366210938,127.92005920410156 " class="st0"/>
   <polygon id="svg_3" fill="#FFFFFF" points="689.5499877929688,32.74013149738312 509.19000244140625,32.74013149738312 537.1400146484375,86.65004348754883 537.1400146484375,419.4302062988281 509.19000244140625,472.6701965332031 689.5499877929688,472.6701965332031 661.5999755859375,419.4302062988281 661.5999755859375,86.65004348754883 " class="st0"/>
   <polygon id="svg_4" fill="#FFFFFF" points="965.75,300.2900695800781 999.7000122070312,300.2900695800781 999.7000122070312,377.5000305175781 909.1799926757812,377.5000305175781 909.1799926757812,127.92005920410156 999.7000122070312,127.92005920410156 999.7000122070312,172.51002502441406 1124.1500244140625,172.51002502441406 1124.1500244140625,73.34010696411133 1084.219970703125,32.74013149738312 823.989990234375,32.74013149738312 784.719970703125,73.34010696411133 784.719970703125,432.0700988769531 823.989990234375,472.6701965332031 1084.219970703125,472.6701965332031 1124.1500244140625,432.0700988769531 1124.1500244140625,237.07008361816406 1140.7900390625,205.12013244628906 937.7999877929688,205.12013244628906 " class="st0"/>
   <polygon id="svg_5" fill="#FFFFFF" points="1622.6500244140625,32.74013149738312 1442.280029296875,32.74013149738312 1470.239990234375,85.99013137817383 1470.239990234375,205.12013244628906 1379.719970703125,205.12013244628906 1379.719970703125,85.99013137817383 1407.6700439453125,32.74013149738312 1227.31005859375,32.74013149738312 1255.260009765625,85.99013137817383 1255.260009765625,419.4302062988281 1227.31005859375,472.6701965332031 1407.6700439453125,472.6701965332031 1379.719970703125,419.4302062988281 1379.719970703125,300.2900695800781 1470.239990234375,300.2900695800781 1470.239990234375,419.4302062988281 1442.280029296875,472.6701965332031 1621.97998046875,472.6701965332031 1594.030029296875,419.4302062988281 1594.030029296875,85.99013137817383 " class="st0"/>
   <polygon id="svg_6" fill="#FFFFFF" points="2121.800048828125,127.92005920410156 2093.840087890625,32.74013149738312 1737.1099853515625,32.74013149738312 1709.1600341796875,127.92005920410156 1852.9200439453125,127.92005920410156 1852.9200439453125,419.4302062988281 1824.9599609375,472.6701965332031 2005.3299560546875,472.6701965332031 1977.3699951171875,419.4302062988281 1977.3699951171875,127.92005920410156 " class="st0"/>
   <polygon id="svg_7" fill="#FFFFFF" points="2406.639892578125,171.84010314941406 2564.3798828125,171.84010314941406 2547.739990234375,140.56007385253906 2547.739990234375,73.34010696411133 2507.81005859375,32.74013149738312 2247.580078125,32.74013149738312 2208.31005859375,73.34010696411133 2208.31005859375,432.0700988769531 2247.580078125,472.6701965332031 2507.81005859375,472.6701965332031 2547.739990234375,432.0700988769531 2547.739990234375,365.5200500488281 2564.3798828125,333.5700988769531 2406.639892578125,333.5700988769531 2423.280029296875,365.5200500488281 2423.280029296875,377.5000305175781 2332.77001953125,377.5000305175781 2332.77001953125,127.92005920410156 2423.280029296875,127.92005920410156 2423.280029296875,140.56007385253906 " class="st0"/>
   <path id="svg_8" fill="#FFFFFF" d="m3472.18,280.33009l-31.28,-31.95l31.28,-31.28l0,-143.76l-39.93,-40.6l-327.45,0l27.95,53.24l0,333.44l-27.95,53.24l180.36,0l-27.95,-53.24l0,-119.13l61.9,0l28.62,28.62l0,143.76l152.41,0l-27.95,-53.24l0,-139.1l-0.01,0zm-124.46,-75.21l-90.51,0l0,-77.2l90.51,0l0,77.2z" class="st0"/>
   <polygon id="svg_9" fill="#FFFFFF" points="3739.050048828125,300.2900695800781 3863.510009765625,300.2900695800781 3908.77001953125,326.2500305175781 3908.77001953125,179.16004943847656 3863.510009765625,205.12013244628906 3739.050048828125,205.12013244628906 3739.050048828125,127.92005920410156 3968,127.92005920410156 3940.050048828125,32.74013149738312 3586.639892578125,32.74013149738312 3614.590087890625,85.99013137817383 3614.590087890625,419.4302062988281 3586.639892578125,472.6701965332031 3940.050048828125,472.6701965332031 3968,377.5000305175781 3739.050048828125,377.5000305175781 " class="st0"/>
  </g>
 </g>
</svg>