<?xml version="1.0" encoding="utf-8"?>
<!-- Generator: Adobe Illustrator 23.0.3, SVG Export Plug-In . SVG Version: 6.00 Build 0)  -->
<svg version="1.1" id="Ebene_1" xmlns="http://www.w3.org/2000/svg" xmlns:xlink="http://www.w3.org/1999/xlink" x="0px" y="0px"
	 viewBox="0 0 4000 4000" style="enable-background:new 0 0 4000 4000;" xml:space="preserve">
<style type="text/css">
	.st0{fill:#FFFFFF;}
</style>
<g id="Wordmark_19_">
	<path class="st0" d="M2989.18,1969.52l23.43-29.96l-49.58-138.5c-5.13-14.34-19.5-23.23-34.62-21.39
		c-31.74,3.86-81.71,14.45-113.25,25.24c-127.73,43.79-109.87,116.78-109.87,116.78l32.08,185.16l-4.58,51.45
		c-1.03,0.07-2.06,0.13-3.1,0.19c0,0,0,0,0,0c-40.16-1.02-72.41-33.9-72.41-74.31c0-5.64,0.63-11.12,1.82-16.4
		c2.18-9.69,6.25-18.66,11.81-26.5c0.7-1,1.43-1.97,2.18-2.93c-38.32,10.88-66.58,45.67-67.64,87.22c-0.01,0.4-0.03,2.79-0.03,2.79
		c-0.82,28.28,20.04,50.72,48.21,63.77c25.89,11.99,64.47,13.37,99.89,11.08c3.75-0.24,7.47-0.52,11.14-0.84
		c41.53-3.58,76.05-11.39,76.05-11.39c41.87,2.11,70.3,29.58,70.3,29.58l-2.69-49.17c0,0,119.47-46.67,150.01-113.52
		C3088.87,1991.04,2989.18,1969.52,2989.18,1969.52z M2922.57,1798.73c0,0,0.04-0.01,0.11-0.03c1.2-0.32,11.86-2.86,19.26,4.53
		c0.04,0.04,0.08,0.08,0.12,0.12c2.1,2.13,3.93,5.08,5.2,9.12c0.01,0.02,6.47,21.09,6.47,21.09l-0.07,0.02l-9.64,2.64l-26.86,7.35
		l-10.57-40.23C2909.7,1802.43,2920.35,1799.37,2922.57,1798.73z M2879.74,1811.02l10.48,39.91l-30.58,8.36l-0.14,0.04l-10.36-39.45
		C2860.14,1816.71,2870.99,1813.55,2879.74,1811.02z M2799.57,1835.83c5.6-2.42,11.64-4.7,18.16-6.79c1.5-0.48,3.03-0.95,4.58-1.41
		l30.58,116.38l-31.28,8.56l-29.74-113.19C2794.34,1838.17,2796.9,1836.98,2799.57,1835.83z M2729.49,1907.68
		C2729.49,1907.68,2729.49,1907.67,2729.49,1907.68c0-0.01,0-0.02,0.01-0.03c0.11-0.44,1.56-6.24,4.94-13.94
		c4.07-8.59,11.28-20.13,23.82-31.68c1.13-0.83,2.29-1.63,3.5-2.38l34.67,99.8l-23.06,6.31
		C2766.38,1956.28,2739.27,1916.28,2729.49,1907.68z M2805.75,2151.42c-3.4,0.35-6.54,0.67-9.43,0.97c-2.93,0.3-5.6,0.58-8.05,0.84
		c-23.11,2.41-25.73,2.8-25.73,2.8l0.34-3.19l0.13-1.25l0.46-4.29l5.4-50.42l-8.27-38.39l-2.07-9.62l-5.01-23.22l-1.84-8.53
		l-1.03-4.78l-10.59-49.14l20.74,36.11l67.42-18.44c0,0-28.62,41.3-20.55,78.75c0,0,13.45-67.61,78.56-96.42
		c65.11-28.81,70.88-63.38,70.88-63.38s-30.54,24.78-74.91,14.98c0,0-9.96-12.89-5.7-26.52l76.13-20.77l11.61-3.17l0.94-0.26
		l21.9,66.65l-123.5,126.77l2.3,64.35C2865.87,2121.84,2845.12,2147.39,2805.75,2151.42z M2991.48,2059.42
		c-5.38,40.14-89.51,68.57-89.51,68.57l-5.19-70.11l43.41-40.53C2940.2,2017.35,2996.86,2019.27,2991.48,2059.42z"/>
	<polygon class="st0" points="413.36,1875.35 385.4,1780.17 32,1780.17 59.95,1833.42 59.95,2166.86 32,2220.1 212.36,2220.1
		184.41,2166.86 184.41,2047.72 297.55,2047.72 342.81,2073.68 342.81,1926.59 297.55,1952.55 184.41,1952.55 184.41,1875.35 	"/>
	<polygon class="st0" points="689.55,1780.17 509.19,1780.17 537.14,1834.08 537.14,2166.86 509.19,2220.1 689.55,2220.1
		661.6,2166.86 661.6,1834.08 	"/>
	<polygon class="st0" points="965.75,2047.72 999.7,2047.72 999.7,2124.93 909.18,2124.93 909.18,1875.35 999.7,1875.35
		999.7,1919.94 1124.15,1919.94 1124.15,1820.77 1084.22,1780.17 823.99,1780.17 784.72,1820.77 784.72,2179.5 823.99,2220.1
		1084.22,2220.1 1124.15,2179.5 1124.15,1984.5 1140.79,1952.55 937.8,1952.55 	"/>
	<polygon class="st0" points="1622.65,1780.17 1442.28,1780.17 1470.24,1833.42 1470.24,1952.55 1379.72,1952.55 1379.72,1833.42
		1407.67,1780.17 1227.31,1780.17 1255.26,1833.42 1255.26,2166.86 1227.31,2220.1 1407.67,2220.1 1379.72,2166.86 1379.72,2047.72
		1470.24,2047.72 1470.24,2166.86 1442.28,2220.1 1621.98,2220.1 1594.03,2166.86 1594.03,1833.42 	"/>
	<polygon class="st0" points="2121.8,1875.35 2093.84,1780.17 1737.11,1780.17 1709.16,1875.35 1852.92,1875.35 1852.92,2166.86
		1824.96,2220.1 2005.33,2220.1 1977.37,2166.86 1977.37,1875.35 	"/>
	<polygon class="st0" points="2406.64,1919.27 2564.38,1919.27 2547.74,1887.99 2547.74,1820.77 2507.81,1780.17 2247.58,1780.17
		2208.31,1820.77 2208.31,2179.5 2247.58,2220.1 2507.81,2220.1 2547.74,2179.5 2547.74,2112.95 2564.38,2081 2406.64,2081
		2423.28,2112.95 2423.28,2124.93 2332.77,2124.93 2332.77,1875.35 2423.28,1875.35 2423.28,1887.99 	"/>
	<path class="st0" d="M3472.18,2027.76l-31.28-31.95l31.28-31.28v-143.76l-39.93-40.6h-327.45l27.95,53.24v333.44l-27.95,53.24
		h180.36l-27.95-53.24v-119.13h61.9l28.62,28.62v143.76h152.41l-27.95-53.24V2027.76z M3347.72,1952.55h-90.51v-77.2h90.51V1952.55z
		"/>
	<polygon class="st0" points="3739.05,2047.72 3863.51,2047.72 3908.77,2073.68 3908.77,1926.59 3863.51,1952.55 3739.05,1952.55
		3739.05,1875.35 3968,1875.35 3940.05,1780.17 3586.64,1780.17 3614.59,1833.42 3614.59,2166.86 3586.64,2220.1 3940.05,2220.1
		3968,2124.93 3739.05,2124.93 	"/>
</g>
</svg>
